<svg xmlns="http://www.w3.org/2000/svg" viewBox="0 0 2000 646.5" style="enable-background:new 0 0 2000 646.5" xml:space="preserve"><path d="M316.3 152.1H243c-21.8 0-39.4-17.6-39.4-39.4V39.4C203.6 17.6 221.3 0 243 0h73.3c21.8 0 39.4 17.7 39.4 39.4v73.3c0 21.8-17.6 39.4-39.4 39.4" style="fill:#426da9"/><path d="M126.8 316.3H44.4C19.9 316.4 0 296.5 0 272.1v-82.5c0-24.5 19.9-44.3 44.4-44.3h82.4c24.5 0 44.3 19.9 44.3 44.3V272c0 24.5-19.8 44.3-44.3 44.3" style="fill:#6d2077"/><path d="M118.9 487.4H68.6c-15 0-27.1-12.1-27.1-27.1V410c0-15 12.2-27.2 27.1-27.2h50.3c15 0 27.1 12.1 27.1 27.2v50.3c0 15-12.1 27.1-27.1 27.1" style="fill:#af1685"/><path d="M254.1 646.5h-59.5c-17.7 0-32-14.3-32-32v-59.6c0-17.7 14.4-32 32-32h59.5c17.7 0 32 14.3 32 32v59.5c0 17.8-14.3 32.1-32 32.1m218.1-464.4H431c-12.2 0-22.2-9.9-22.2-22.2v-41.2c0-12.3 9.9-22.2 22.2-22.2h41.2c12.2 0 22.2 10 22.2 22.2v41.2c0 12.2-9.9 22.2-22.2 22.2" style="fill:#e63888"/><path d="M1374.7 209.6c13.1 0 23.7-10.6 23.7-23.7s-10.6-23.8-23.8-23.8c-13.1 0-23.8 10.6-23.8 23.8.1 13.1 10.7 23.7 23.9 23.7-.1 0 0 0 0 0z" style="fill:#004691"/><path d="M507.2 463.1c-3.7 5.5-9.7 8.3-16.1 8.3-3.8 0-7.6-.9-11-2.7-5.1-3.2-8.7-10.1-8.7-17 0-3.2.9-6.4 2.8-9.2l55.1-86.8-55.1-86.8c-1.8-2.9-2.8-6.2-2.8-9.7 0-6.4 3.2-13.3 9.2-16.5 3.1-1.8 6.5-2.8 10.1-2.7 6.4 0 12.9 2.7 16.5 8.3l45 71.2 45.5-71.2c3.7-5.5 10.1-8.3 16.5-8.3 3.7 0 6.9.9 10.1 2.7 6 3.2 9.2 10.1 9.2 16.5 0 3.2-.9 6.9-2.8 9.7l-55.1 86.8 55.1 86.8c1.8 2.7 2.8 6 2.8 9.2 0 6.9-3.7 13.8-8.7 17-3.4 1.8-7.2 2.8-11 2.7-6.4 0-12.4-2.7-16.1-8.3l-45.5-70.8-45 70.8zM703.7 267c21.7-19.6 49.8-30.4 79-30.3 65.4-.3 118.7 52.4 119 117.8v1.1c0 65.3-52.8 118.1-119 118.1-30.3 0-58.4-11.5-79-30.3v101.5c0 10.1-9.2 18.8-19.8 18.8-9.7 0-19.3-8.7-19.3-18.8V257.3c0-10.1 9.6-18.8 19.3-18.8 10.6 0 19.7 8.7 19.7 18.8l.1 9.7zm79 9.1c-44.1 0-79 34.9-79 79.5 0 44.1 34.9 79 79 79 44.6 0 79.5-34.9 79.5-79 0-44.5-34.9-79.4-79.5-79.5zm455.4 57.9v119c0 10.1-9.7 18.8-19.3 18.8-10.6 0-19.8-8.7-19.8-18.8V257.3c0-10.1 9.2-18.8 19.8-18.8 9.2 0 18.8 8.3 19.3 17.9 16.1-12.4 36.7-19.3 59.3-19.8 12.4 0 21.6 9.6 21.6 19.3 0 10.6-9.6 20.2-21.6 20.2-30.9 1-59.3 12-59.3 57.9zm136.8-95.5c-10.6 0-19.8 8.7-19.8 18.8V453c0 10.1 9.2 18.8 19.8 18.8 9.7 0 19.3-8.7 19.3-18.8V257.3c0-10.1-9.6-18.8-19.3-18.8zm249.5 18.8c0-10.1 9.2-18.8 19.7-18.8 9.7 0 19.3 8.7 19.3 18.8V453c0 10.1-9.6 18.8-19.3 18.8-10.6 0-19.7-8.7-19.7-18.8v-9.7c-21.7 19.5-49.9 30.3-79 30.3-65.4.3-118.7-52.4-119-117.8v-1.1c0-65.2 52.8-118.1 119-118.1 30.3 0 57.9 11.5 79 30.3v-9.6zm-79 176.9c44.1 0 79-34.9 79-79.5.3-43.3-34.5-78.7-77.9-79h-1.2c-44.5 0-79.4 34.9-79.4 79 0 44.6 34.9 79.5 79.5 79.5zm317-97.9c0-32.6-28.5-61.1-61.1-61.1-31.7 0-61.1 12.9-61.1 58.8v119c0 10.1-9.7 18.8-19.3 18.8-10.6 0-19.7-8.7-19.7-18.8V257.3c0-10.1 9.2-18.8 19.7-18.8 9.2 0 18.8 8.3 19.3 17.9 16.5-12.9 37.7-19.8 60.6-19.8 53.3 0 100.6 41.8 100.6 94.2V453c0 10.1-9.6 18.8-19.3 18.8-10.6 0-19.8-8.7-19.8-18.8l.1-116.7zm-1401.9 12c-.9-60.2-54.7-111.6-118.1-111.6-66.2 0-119 52.8-119 118-.3 65.4 52.4 118.7 117.8 119h1.2c31.7 0 61.1-12.4 82.2-33.5 4.1-3.7 6.9-9.2 6.9-14.7 0-10.6-9.2-19.7-19.8-19.7-6 0-11.5 3.7-15.6 7.8-13.3 14.2-33.1 20.7-53.8 20.7-39.5 0-71.6-27.1-78.6-64.7H441.9c.3 0 .7-.1 1-.2.7-.1 1.4-.2 2-.4 9.4-2.8 15.6-11.2 15.6-20.7zm-118.1-72.6c35.6 0 65.2 22.8 75.3 54.7H266.6c10.1-31.8 39.8-54.7 75.8-54.7zm823.6 72.6c-.9-60.2-54.7-111.6-118.1-111.6-66.2 0-119 52.8-119 118-.3 65.4 52.5 118.7 117.9 119h1.1c31.7 0 61.1-12.4 82.2-33.5 4.1-3.7 6.9-9.2 6.9-14.7 0-10.6-9.2-19.7-19.8-19.7-6 0-11.5 3.7-15.6 7.8-13.3 14.2-33.1 20.7-53.7 20.7-39.5 0-71.7-27.1-78.6-64.7H1147.5c.5 0 1-.2 1.6-.3.3-.1.5-.1.8-.1 9.5-2.6 16.1-11.2 16.1-20.9zm-118.1-72.6c35.6 0 65.2 22.8 75.3 54.7H972.1c10.1-31.8 39.7-54.7 75.8-54.7zM1942.8 472c-1.8 0-3.2-1.4-3.2-3.1v-33.1h-7.4c-1.8 0-3.2-1.5-3.1-3.2 0-1.9 1.4-3.3 3.1-3.3h21.4c1.8 0 3.1 1.4 3.1 3.3 0 1.8-1.4 3.2-3.1 3.2h-7.5v33.1c0 1.7-1.4 3.1-3.1 3.2-.1-.1-.2-.1-.2-.1zm38.3 0c-1.8 0-2.8-1.3-3.2-2.5l-9.2-27.1v26.4c0 1.7-1.4 3.1-3.1 3.2h-.1c-1.8 0-3.2-1.4-3.2-3.2v-35c0-2.6 2.3-4.9 4.9-4.9 2.1 0 4 1.5 4.7 3.6l9.4 27.4 9.3-27.4c.7-2.1 2.6-3.5 4.7-3.6 2.6 0 4.9 2.3 4.9 4.9v35c0 1.7-1.4 3.1-3.1 3.2h-.1c-1.8 0-3.2-1.4-3.3-3.1v-26.3l-5.4 16-3.7 11c-1 1.6-2.1 2.4-3.5 2.4z" style="fill:#1d4f91"/></svg>